<svg width="14" height="14" viewBox="0 0 14 14" fill="none" xmlns="http://www.w3.org/2000/svg">
<path d="M3.9013 12.2555C3.8415 12.2985 3.77099 12.3242 3.69753 12.3296C3.62407 12.3351 3.55052 12.3202 3.48499 12.2866C3.41946 12.2529 3.36449 12.2019 3.32615 12.139C3.28781 12.0761 3.26758 12.0038 3.2677 11.9301V3.93333C3.2677 3.47362 3.45032 3.03274 3.77538 2.70768C4.10045 2.38262 4.54133 2.2 5.00103 2.2H9.0005C9.46002 2.20014 9.90069 2.38275 10.2256 2.70768C10.5506 3.03261 10.7332 3.47327 10.7333 3.9328V11.9307C10.7333 12.0043 10.713 12.0765 10.6746 12.1393C10.6363 12.2021 10.5813 12.2531 10.5158 12.2867C10.4503 12.3203 10.3767 12.3352 10.3033 12.3296C10.2299 12.3241 10.1595 12.2985 10.0997 12.2555L7.0005 10.0256L3.90077 12.2549L3.9013 12.2555Z" fill="#F0C752"/>
</svg>
