<svg width="14" height="14" viewBox="0 0 14 14" fill="none" xmlns="http://www.w3.org/2000/svg">
<path d="M5.02344 8.06667L4.08104 11.8363C3.98131 12.2341 4.47357 12.5061 4.75784 12.2101L11.1546 5.544C11.209 5.48748 11.2456 5.41622 11.2598 5.33908C11.274 5.26194 11.2652 5.18233 11.2345 5.11015C11.2038 5.03797 11.1526 4.9764 11.0872 4.93311C11.0218 4.88982 10.9451 4.86671 10.8666 4.86667H8.48797L9.37971 2.19307C9.39974 2.13292 9.40519 2.06888 9.39561 2.00622C9.38603 1.94355 9.36169 1.88406 9.32461 1.83265C9.28752 1.78124 9.23874 1.73938 9.1823 1.71052C9.12586 1.68166 9.06337 1.66663 8.99997 1.66667H5.26664C5.17973 1.66668 5.09518 1.69501 5.0258 1.74736C4.95642 1.79971 4.90598 1.87323 4.88211 1.9568L3.28211 7.5568C3.2651 7.61632 3.26215 7.67898 3.27347 7.73984C3.2848 7.8007 3.31009 7.8581 3.34737 7.90752C3.38464 7.95694 3.43288 7.99704 3.48828 8.02466C3.54368 8.05227 3.60474 8.06665 3.66664 8.06667H5.02344Z" fill="#8754F6"/>
</svg>
