<svg width="14" height="14" viewBox="0 0 14 14" fill="none" xmlns="http://www.w3.org/2000/svg">
<path d="M7.8091 1.99792L11.522 4.47301C11.6019 4.52628 11.6674 4.59845 11.7127 4.68311C11.758 4.76778 11.7817 4.86232 11.7817 4.95834C11.7817 5.05436 11.758 5.1489 11.7127 5.23357C11.6674 5.31823 11.6019 5.3904 11.522 5.44367L7.8091 7.91934C7.56951 8.07911 7.28798 8.16436 7.00001 8.16436C6.71204 8.16436 6.43052 8.07911 6.19093 7.91934L2.47801 5.44367C2.39812 5.3904 2.33262 5.31823 2.28731 5.23357C2.242 5.1489 2.2183 5.05436 2.2183 4.95834C2.2183 4.86232 2.242 4.76778 2.28731 4.68311C2.33262 4.59845 2.39812 4.52628 2.47801 4.47301L6.19093 1.99792C6.43052 1.83816 6.71204 1.7529 7.00001 1.7529C7.28798 1.7529 7.56951 1.83816 7.8091 1.99792ZM11.6818 7.11201C11.5953 7.25055 11.4806 7.36938 11.3453 7.46084L7.8161 9.84317C7.57506 10.0059 7.29086 10.0929 7.00001 10.0929C6.70917 10.0929 6.42497 10.0059 6.18393 9.84317L2.65476 7.46084C2.44354 7.31835 2.28478 7.11062 2.20272 6.86941C2.12067 6.62819 2.11983 6.36674 2.20035 6.12501L6.19093 8.78501C6.41496 8.9343 6.67595 9.01867 6.94498 9.02876C7.21402 9.03885 7.48059 8.97427 7.71518 8.84217L7.80851 8.78501L11.7991 6.12501C11.8536 6.28798 11.8714 6.461 11.8511 6.63165C11.8308 6.80229 11.773 6.96634 11.6818 7.11201ZM11.6818 9.00784C11.5953 9.14638 11.4806 9.26522 11.3453 9.35667L7.8161 11.739C7.57506 11.9018 7.29086 11.9887 7.00001 11.9887C6.70917 11.9887 6.42497 11.9018 6.18393 11.739L2.65476 9.35667C2.44354 9.21418 2.28478 9.00646 2.20272 8.76524C2.12067 8.52402 2.11983 8.26257 2.20035 8.02084L6.19093 10.6808C6.41496 10.8301 6.67595 10.9145 6.94498 10.9246C7.21402 10.9347 7.48059 10.8701 7.71518 10.738L7.80851 10.6808L11.7991 8.02084C11.8536 8.18381 11.8714 8.35683 11.8511 8.52748C11.8308 8.69813 11.773 8.86217 11.6818 9.00784Z" fill="#8754F6"/>
</svg>
