<svg width="14" height="14" viewBox="0 0 14 14" fill="none" xmlns="http://www.w3.org/2000/svg">
<path d="M8.8869 10.7328L8.73223 11.4043C8.67452 11.6531 8.53891 11.877 8.34515 12.0434C8.15139 12.2098 7.90958 12.3101 7.6549 12.3296L7.56263 12.3333H6.43677C6.18122 12.3333 5.93234 12.2518 5.72638 12.1005C5.52042 11.9492 5.36814 11.7361 5.2917 11.4923L5.26717 11.4032L5.1125 10.7328H8.8869ZM6.99997 1.66721C8.02547 1.66721 9.00897 2.07459 9.73411 2.79973C10.4593 3.52487 10.8666 4.50837 10.8666 5.53387C10.8666 6.67307 10.3674 7.71681 9.39197 8.64854C9.37309 8.66658 9.35992 8.68976 9.3541 8.71521L9.0725 9.93281H7.39997V6.33334C7.39997 6.22725 7.35782 6.12551 7.28281 6.0505C7.20779 5.97548 7.10605 5.93334 6.99997 5.93334C6.89388 5.93334 6.79214 5.97548 6.71712 6.0505C6.64211 6.12551 6.59997 6.22725 6.59997 6.33334V9.93334H4.92743L4.6469 8.71574C4.64098 8.69048 4.62782 8.6675 4.60903 8.64961C3.63303 7.71681 3.1333 6.67307 3.1333 5.53334C3.13344 4.50793 3.54088 3.52456 4.26601 2.79954C4.99113 2.07451 5.97456 1.66721 6.99997 1.66721ZM6.59997 4.20054V5.00054C6.59997 5.10663 6.64211 5.20837 6.71712 5.28338C6.79214 5.3584 6.89388 5.40054 6.99997 5.40054C7.10605 5.40054 7.20779 5.3584 7.28281 5.28338C7.35782 5.20837 7.39997 5.10663 7.39997 5.00054V4.20054C7.39997 4.09445 7.35782 3.99271 7.28281 3.9177C7.20779 3.84268 7.10605 3.80054 6.99997 3.80054C6.89388 3.80054 6.79214 3.84268 6.71712 3.9177C6.64211 3.99271 6.59997 4.09445 6.59997 4.20054ZM9.28263 4.98187C9.20763 4.90697 9.10597 4.86489 8.99997 4.86489C8.89397 4.86489 8.7923 4.90697 8.7173 4.98187L8.15143 5.54721C8.11321 5.58409 8.08272 5.62821 8.06173 5.677C8.04075 5.72579 8.02969 5.77828 8.0292 5.83139C8.02871 5.8845 8.03881 5.93717 8.0589 5.98634C8.07899 6.03551 8.10867 6.08018 8.14621 6.11776C8.18375 6.15533 8.22839 6.18506 8.27754 6.20519C8.32669 6.22533 8.37936 6.23547 8.43247 6.23504C8.48558 6.2346 8.53807 6.22359 8.58689 6.20265C8.6357 6.18171 8.67985 6.15126 8.71677 6.11307L9.28263 5.54774C9.35754 5.47274 9.39961 5.37107 9.39961 5.26507C9.39961 5.15907 9.35754 5.05741 9.28263 4.98241V4.98187ZM5.28263 4.98187C5.20681 4.91122 5.10652 4.87275 5.00289 4.87458C4.89926 4.87641 4.80039 4.91839 4.7271 4.99167C4.65382 5.06496 4.61184 5.16383 4.61001 5.26746C4.60818 5.37109 4.64664 5.47138 4.7173 5.54721L5.28263 6.11307C5.31951 6.15129 5.36364 6.18179 5.41243 6.20277C5.46122 6.22376 5.5137 6.23482 5.56682 6.2353C5.61993 6.23579 5.6726 6.2257 5.72177 6.20561C5.77094 6.18552 5.81561 6.15584 5.85319 6.1183C5.89076 6.08076 5.92048 6.03611 5.94062 5.98696C5.96076 5.93781 5.9709 5.88515 5.97046 5.83204C5.97003 5.77892 5.95902 5.72643 5.93808 5.67762C5.91714 5.62881 5.88669 5.58466 5.8485 5.54774L5.28317 4.98241L5.28263 4.98187Z" fill="#2DB77B"/>
</svg>
